<svg width="337" height="190" viewBox="0 0 337 190" fill="none" xmlns="http://www.w3.org/2000/svg">
<path d="M141.036 112.112C141.036 115.643 139.286 117.409 135.786 117.409H120.974C117.474 117.409 115.724 115.643 115.724 112.112V77.0964C115.724 73.5652 117.474 71.7996 120.974 71.7996H135.786C139.286 71.7996 141.036 73.5652 141.036 77.0964V86.1902H134.896V77.2839H121.958V111.925H134.896V101.753H141.036V112.112ZM176.474 112.112C176.474 115.643 174.724 117.409 171.224 117.409H156.411C152.911 117.409 151.161 115.643 151.161 112.112V77.0964C151.161 73.5652 152.911 71.7996 156.411 71.7996H171.224C174.724 71.7996 176.474 73.5652 176.474 77.0964V86.1902H170.333V77.2839H157.396V111.925H170.333V101.753H176.474V112.112ZM212.802 117.409H206.568V77.3777L192.833 77.7527V117.409H186.599V44.0496H192.833V73.0652C195.302 72.7527 197.771 72.4402 200.24 72.1277C203.365 71.7214 205.818 71.5183 207.599 71.5183C211.068 71.5183 212.802 73.2214 212.802 76.6277V117.409ZM248.661 117.409H242.521V116.143C240.052 116.487 237.583 116.815 235.115 117.128C232.052 117.503 229.599 117.69 227.755 117.69C224.349 117.69 222.646 116.003 222.646 112.628V95.9871C222.646 92.4871 224.411 90.7371 227.943 90.7371H242.615V77.0027H229.208V84.7839H223.161V77.0964C223.161 73.5652 224.911 71.7996 228.411 71.7996H243.411C246.911 71.7996 248.661 73.5652 248.661 77.0964V117.409ZM242.615 111.737V95.6121H228.693V112.018L242.615 111.737ZM282.74 86.7996H276.599V77.3777L265.115 77.7527V117.409H258.88V71.7996H265.115V73.0652C267.177 72.7527 269.255 72.4246 271.349 72.0808C273.849 71.7058 275.927 71.5183 277.583 71.5183C281.021 71.5183 282.74 73.2214 282.74 76.6277V86.7996ZM297.177 117.409H291.036V44.0496H297.177V117.409ZM333.505 71.7996L322.536 117.034L317.99 134.706H311.849L316.443 117.034L305.193 71.7996H311.615L319.396 107.706L327.271 71.7996H333.505Z" fill="#DF9527"/>
<path d="M95.9193 0.00445281C70.7251 -0.239324 46.4659 9.53511 28.4785 27.1776C10.491 44.82 0.248606 68.8854 0.0044638 94.0796C-0.239616 119.274 9.5347 143.533 27.1772 161.521C44.8197 179.509 68.8852 189.751 94.0795 189.996C112.304 190.172 130.195 185.103 145.618 175.392L140.055 175.314C125.903 175.117 114.592 163.564 114.693 149.412L114.754 140.909C108.375 143.751 101.477 145.186 94.514 145.119C81.4493 144.992 68.971 139.59 59.824 130.102C50.677 120.613 45.6106 107.815 45.7395 94.5222C45.868 81.2585 51.1589 68.5858 60.4528 59.2806C69.7467 49.9754 82.2856 44.7967 95.3224 44.8791C95.3764 44.8805 95.4304 44.8819 95.4844 44.8835C102.361 44.9501 109.147 46.4807 115.405 49.3768L115.469 40.6077C115.57 26.4552 127.044 15.2205 141.196 15.4177L147.001 15.4988C131.804 5.55919 114.078 0.183041 95.92 0.0071147L95.9193 0.00445281Z" fill="#DF9527"/>
<path d="M122.905 53.0786V57.5556C126.578 60.3339 129.82 63.6393 132.526 67.365C133.592 66.7471 134.729 66.2374 135.923 65.8517C132.396 60.8379 127.985 56.5094 122.905 53.0786ZM130.995 124.325C128.623 127.246 125.906 129.87 122.905 132.141V136.618C127.178 133.732 130.982 130.208 134.186 126.168C133.054 125.664 131.985 125.046 130.995 124.325Z" fill="#DF9527"/>
</svg>
